<svg xmlns="http://www.w3.org/2000/svg">
  <defs>
    <svg data-slot="icon" id="pencil-square" fill="none" stroke-width="1.5" stroke="currentColor" viewBox="0 0 24 24"
         xmlns="http://www.w3.org/2000/svg" aria-hidden="true">
      <path stroke-linecap="round" stroke-linejoin="round"
            d="m16.862 4.487 1.687-1.688a1.875 1.875 0 1 1 2.652 2.652L10.582 16.07a4.5 4.5 0 0 1-1.897 1.13L6 18l.8-2.685a4.5 4.5 0 0 1 1.13-1.897l8.932-8.931Zm0 0L19.5 7.125M18 14v4.75A2.25 2.25 0 0 1 15.75 21H5.25A2.25 2.25 0 0 1 3 18.75V8.25A2.25 2.25 0 0 1 5.25 6H10"></path>
    </svg>
    <svg data-slot="icon" id="plus" fill="none" stroke-width="1.5" stroke="currentColor" viewBox="0 0 24 24" xmlns="http://www.w3.org/2000/svg" aria-hidden="true">
      <path stroke-linecap="round" stroke-linejoin="round" d="M12 4.5v15m7.5-7.5h-15"></path>
    </svg>
    <svg id="favoris" data-slot="icon" fill="none" stroke-width="1.5" stroke="currentColor" viewBox="0 0 24 24" xmlns="http://www.w3.org/2000/svg" aria-hidden="true">
      <path stroke-linecap="round" stroke-linejoin="round" d="M21 8.25c0-2.485-2.099-4.5-4.688-4.5-1.935 0-3.597 1.126-4.312 2.733-.715-1.607-2.377-2.733-4.313-2.733C5.1 3.75 3 5.765 3 8.25c0 7.22 9 12 9 12s9-4.78 9-12Z"></path>
    </svg>
    <svg data-slot="icon" id="trash" fill="none" stroke-width="1.5" stroke="currentColor" viewBox="0 0 24 24"
         xmlns="http://www.w3.org/2000/svg" aria-hidden="true">
      <path stroke-linecap="round" stroke-linejoin="round"
            d="m14.74 9-.346 9m-4.788 0L9.26 9m9.968-3.21c.342.052.682.107 1.022.166m-1.022-.165L18.16 19.673a2.25 2.25 0 0 1-2.244 2.077H8.084a2.25 2.25 0 0 1-2.244-2.077L4.772 5.79m14.456 0a48.108 48.108 0 0 0-3.478-.397m-12 .562c.34-.059.68-.114 1.022-.165m0 0a48.11 48.11 0 0 1 3.478-.397m7.5 0v-.916c0-1.18-.91-2.164-2.09-2.201a51.964 51.964 0 0 0-3.32 0c-1.18.037-2.09 1.022-2.09 2.201v.916m7.5 0a48.667 48.667 0 0 0-7.5 0"></path>
    </svg>
    <svg id="magnifying-glass" xmlns="http://www.w3.org/2000/svg" fill="none" viewBox="0 0 24 24" stroke-width="1.5" stroke="currentColor" aria-hidden="true">
      <path stroke-linecap="round" stroke-linejoin="round" d="M21 21l-5.197-5.197m0 0A7.5 7.5 0 105.196 5.196a7.5 7.5 0 0010.607 10.607z"/>
    </svg>


    <svg id="eye-slash" xmlns="http://www.w3.org/2000/svg" fill="none" viewBox="0 0 24 24" stroke-width="1.5"
         stroke="currentColor" aria-hidden="true">
      <path stroke-linecap="round" stroke-linejoin="round"
            d="M3.98 8.223A10.477 10.477 0 001.934 12C3.226 16.338 7.244 19.5 12 19.5c.993 0 1.953-.138 2.863-.395M6.228 6.228A10.45 10.45 0 0112 4.5c4.756 0 8.773 3.162 10.065 7.498a10.523 10.523 0 01-4.293 5.774M6.228 6.228L3 3m3.228 3.228l3.65 3.65m7.894 7.894L21 21m-3.228-3.228l-3.65-3.65m0 0a3 3 0 10-4.243-4.243m4.242 4.242L9.88 9.88"/>
    </svg>

    <svg id="ellipsis-horizontal" xmlns="http://www.w3.org/2000/svg" viewBox="0 0 24 24" fill="currentColor" aria-hidden="true">
      <path fill-rule="evenodd" d="M4.5 12a1.5 1.5 0 113 0 1.5 1.5 0 01-3 0zm6 0a1.5 1.5 0 113 0 1.5 1.5 0 01-3 0zm6 0a1.5 1.5 0 113 0 1.5 1.5 0 01-3 0z" clip-rule="evenodd"/>
    </svg>


    <svg id="eye" xmlns="http://www.w3.org/2000/svg" fill="none" viewBox="0 0 24 24" stroke-width="1.5"
         stroke="currentColor" aria-hidden="true">
      <path stroke-linecap="round" stroke-linejoin="round"
            d="M2.036 12.322a1.012 1.012 0 010-.639C3.423 7.51 7.36 4.5 12 4.5c4.638 0 8.573 3.007 9.963 7.178.07.207.07.431 0 .639C20.577 16.49 16.64 19.5 12 19.5c-4.638 0-8.573-3.007-9.963-7.178z"/>
      <path stroke-linecap="round" stroke-linejoin="round" d="M15 12a3 3 0 11-6 0 3 3 0 016 0z"/>
    </svg>

    <svg id="logout"  xmlns="http://www.w3.org/2000/svg" fill="none" viewBox="0 0 24 24" stroke="currentColor" stroke-width="1.5">
      <path stroke-linecap="round" stroke-linejoin="round" d="M17 16l4-4m0 0l-4-4m4 4H7m6 4v1a3 3 0 01-3 3H6a3 3 0 01-3-3V7a3 3 0 013-3h4a3 3 0 013 3v1" />
    </svg>
    <svg id="panier" stroke-width="1.5" xmlns="http://www.w3.org/2000/svg"  viewBox="0 0 20 20" fill="currentColor">
      <path d="M3 1a1 1 0 000 2h1.22l.305 1.222a.997.997 0 00.01.042l1.358 5.43-.893.892C3.74 11.846 4.632 14 6.414 14H15a1 1 0 000-2H6.414l1-1H14a1 1 0 00.894-.553l3-6A1 1 0 0017 3H6.28l-.31-1.243A1 1 0 005 1H3zM16 16.5a1.5 1.5 0 11-3 0 1.5 1.5 0 013 0zM6.5 18a1.5 1.5 0 100-3 1.5 1.5 0 000 3z" />
    </svg>

    <svg id="user-circle" data-slot="icon" fill="none" stroke-width="1.5" stroke="currentColor" viewBox="0 0 24 24" xmlns="http://www.w3.org/2000/svg" aria-hidden="true">
      <path stroke-linecap="round" stroke-linejoin="round" d="M17.982 18.725A7.488 7.488 0 0 0 12 15.75a7.488 7.488 0 0 0-5.982 2.975m11.963 0a9 9 0 1 0-11.963 0m11.963 0A8.966 8.966 0 0 1 12 21a8.966 8.966 0 0 1-5.982-2.275M15 9.75a3 3 0 1 1-6 0 3 3 0 0 1 6 0Z"></path>
    </svg>
  </defs>
</svg>
